<?xml version="1.0" standalone="no"?>
<!DOCTYPE svg PUBLIC "-//W3C//DTD SVG 20010904//EN"
 "http://www.w3.org/TR/2001/REC-SVG-20010904/DTD/svg10.dtd">
<svg version="1.0" xmlns="http://www.w3.org/2000/svg"
 width="447.000000pt" height="283.000000pt" viewBox="0 0 447.000000 283.000000"
 preserveAspectRatio="xMidYMid meet">
<metadata>
Created by potrace 1.16, written by Peter Selinger 2001-2019
</metadata>
<g transform="translate(0.000000,283.000000) scale(0.100000,-0.100000)"
fill="#000000" stroke="none">
<path d="M930 2075 l0 -645 -300 0 c-331 0 -345 -2 -375 -60 -23 -44 -23 -976
0 -1020 29 -57 48 -60 340 -60 l265 0 0 -89 c0 -49 3 -96 6 -105 9 -24 51 -19
88 9 31 23 41 25 149 25 l117 0 0 80 0 80 225 0 c242 0 270 5 297 53 10 16 14
128 18 446 4 381 6 421 20 395 8 -16 22 -40 31 -54 9 -14 26 -41 36 -60 11
-19 60 -102 108 -184 49 -83 88 -156 88 -163 0 -7 4 -13 9 -13 4 0 8 -9 8 -19
0 -11 3 -21 8 -23 4 -2 18 -24 32 -50 13 -27 28 -48 32 -48 5 0 8 -6 8 -14 0
-8 3 -16 8 -18 4 -1 16 -21 27 -43 l21 -40 86 -3 86 -3 22 48 c13 26 38 69 56
95 19 26 36 59 40 73 3 14 10 25 15 25 5 0 9 7 9 16 0 15 36 80 127 231 23 40
43 75 43 79 0 3 8 18 19 32 17 25 27 41 82 140 12 20 25 42 29 47 4 6 17 26
28 45 87 153 114 193 108 164 -10 -60 11 -105 85 -177 82 -81 146 -113 247
-123 l72 -7 0 -208 c0 -135 -4 -209 -10 -209 -7 0 -9 -100 -8 -292 l3 -293
153 -3 152 -3 0 555 c0 541 0 555 19 561 11 3 63 35 116 70 53 36 99 65 102
65 14 0 142 122 201 190 188 219 282 429 282 630 0 120 -23 174 -112 267 -75
78 -102 93 -163 93 -63 0 -76 -8 -183 -114 -107 -105 -122 -128 -122 -191 0
-59 10 -77 77 -147 39 -39 56 -64 56 -82 0 -20 -31 -58 -134 -164 l-134 -137
-3 498 -2 497 -135 0 c-113 0 -135 -2 -135 -15 0 -8 -4 -15 -9 -15 -5 0 -22
-29 -40 -65 -17 -36 -34 -65 -39 -65 -5 0 -14 -16 -22 -35 -8 -19 -17 -35 -21
-35 -4 0 -10 -13 -14 -30 -4 -16 -11 -30 -16 -30 -5 0 -9 -5 -9 -10 0 -11 -50
-91 -62 -100 -3 -3 -10 -19 -13 -35 -7 -28 -72 -147 -172 -312 -23 -40 -43
-75 -43 -77 0 -2 -18 -34 -41 -71 -22 -37 -49 -83 -60 -101 -39 -69 -57 -100
-89 -154 -18 -30 -41 -68 -50 -85 -10 -16 -66 -113 -125 -215 -129 -222 -145
-249 -159 -275 -59 -105 -92 -155 -103 -155 -7 0 -13 5 -13 11 0 6 -8 23 -19
37 -10 15 -28 44 -40 65 -11 20 -29 52 -40 70 -24 42 -138 235 -212 360 -33
54 -59 100 -59 102 0 2 -23 40 -50 85 -28 45 -50 84 -50 86 0 3 -13 25 -30 49
-16 24 -30 46 -30 50 0 3 -11 22 -24 43 -27 43 -147 245 -184 312 -14 25 -42
73 -63 107 -21 33 -35 63 -32 66 5 6 -11 39 -29 59 -15 16 -32 44 -67 113 -14
28 -29 52 -33 53 -5 2 -8 8 -8 14 0 5 -10 24 -23 41 -13 18 -36 60 -53 94
l-29 62 -132 1 -133 0 0 -645z m330 -9 c0 -2 23 -41 50 -86 28 -45 50 -83 50
-85 0 -2 24 -43 54 -92 91 -151 216 -363 216 -368 0 -3 -94 -5 -210 -5 l-210
0 0 357 0 358 25 -37 c14 -20 25 -39 25 -42z m2072 -61 c-3 -78 0 -115 7 -115
7 0 11 -36 11 -105 l0 -106 -31 17 c-37 19 -107 21 -141 4 -12 -7 -63 -51
-112 -99 l-89 -86 34 60 c18 33 65 114 104 180 39 66 82 140 96 165 13 25 34
55 46 67 13 12 23 27 23 33 0 5 4 10 8 10 4 0 16 20 26 45 11 25 19 45 20 45
1 0 -1 -52 -2 -115z"/>
</g>
</svg>
